<svg width="340" height="59" fill="none" xmlns="http://www.w3.org/2000/svg"><g clip-path="url(#a)"><path d="M71.919 7.27s1.51.064 4.893 0c0 0-.127 12.269.25 38.902 7.085.256 9.341.192 9.341.192-.058 2.901-.058 4.48-.058 4.48-7.589-.187-14.05-.25-14.05-.25s-.058-17.555-.376-43.324Zm14.935 36.379c0-5.815 3.887-10.135 11.725-11.81 0 0-.058-2.278-.122-3.6-.127-3.916-.752-5.687-2.823-5.687-2.51 0-3.447 2.715-3.135 7.468 0 0-1.88.064-4.517.064-.498-6.758 2.007-11.303 7.838-11.303 4.893 0 7.149 3.409 7.34 9.346.376 14.081.122 23.432.122 23.432s-1.06 0-3.888.064c0 0 .191-2.278.255-5.243a6.26 6.26 0 0 1-2.269 3.412 6.183 6.183 0 0 1-3.88 1.26c-3.898-.016-6.646-2.923-6.646-7.403Zm11.852-8.908c-5.455 1.643-7.15 4.928-7.15 8.273 0 2.528.943 4.294 3.178 4.294 1.944 0 4.014-1.894 4.014-7.895.01-2.016.01-3.344-.053-4.672h.011Zm17.985-27.343a31.77 31.77 0 0 1 3.389-.192c9.533 0 13.293 6.13 13.293 15.79 0 9.915-4.703 15.03-11.789 15.596.064 3.035.064 6.758.186 11.815 0 0-1.944 0-4.952.059 0 0 .127-16.355-.127-43.068Zm4.83 27.092c3.951-.443 6.885-3.2 6.885-11.495 0-7.2-2.257-11.682-7.023-11.495.011 13.645.011 14.653.138 22.99Zm12.79 9.095c0-5.495 3.389-10.36 11.73-11.431 0 0-.063-2.086-.127-3.414-.191-3.851-.752-5.617-2.823-5.617-2.51 0-3.177 2.523-3.135 6.817 0 0-1.944-.25-4.512-.315-.191-6.817 2.256-10.294 7.838-10.294 4.888 0 7.144 3.413 7.335 9.35.376 14.082.127 23.555.127 23.555s-1.059.064-3.893.128c0 0 .191-2.528.255-5.622-.943 3.094-3.326 4.737-6.149 4.737-3.448 0-6.646-2.336-6.646-7.894Zm11.857-8.668c-5.264.944-7.149 4.422-7.149 8.145 0 3.03 1.133 4.672 3.177 4.672s4.015-2.021 4.015-8.08c.015-2.07.015-3.27-.043-4.737Zm19.373-7.249c0-2.902-.53-4.545-2.256-4.545-2.383 0-4.078 3.537-4.142 7.58 0 4.987-.063 19.325-.063 19.325s-2.32-.064-4.703 0c0 0 .254-12.316.127-30.255 0 0 1.695 0 3.887-.064 0 0-.063 2.278 0 4.486 1.192-3.093 3.512-5.43 6.583-5.43 3.575 0 5.079 2.715 5.206 7.639.064 3.413.185 25.454.185 25.454-2.065 0-4.766.064-4.766.064s-.058-14.274-.058-24.254Zm6.768-8.145c1.059.064 2.071.064 3.013.064.064-4.673.186-7.516.186-7.516 2.95.123 4.581.064 4.581.064s-.127 2.966-.191 7.516c4.078.058 5.518.058 5.518.058-.063 3.2-.063 4.236-.063 4.236l-5.455-.064c-.063 5.115 0 11.494.127 18.189.122 2.779 1.128 4.102 3.257 4.102a8.26 8.26 0 0 0 2.262-.38l.497 4.359c-1.375.42-2.8.653-4.236.693-3.951 0-6.271-2.336-6.393-7.702a671.401 671.401 0 0 1-.063-19.325h-3.072c.032-3.03.032-4.294.032-4.294Zm15.237 15.095c0-9.287 2.446-16.045 8.653-16.045 6.837 0 8.474 7.468 8.029 17.747 0 0-4.767.128-11.789.378.127 7.388 1.255 11.202 3.951 11.202 2.319 0 3.32-3.094 3.447-8.465 0 0 2.198 0 4.703.128-.312 7.329-3.071 12.001-8.214 12.001-6.959-.021-8.78-6.78-8.78-16.946Zm4.893-1.2c1.816-.064 4.136-.128 6.959-.32.063-6.758-.752-10.988-3.321-10.988-2.568 0-3.511 5.051-3.638 11.308Zm15.363-13.437s1.256 0 4.015-.064c0 0-.191 2.273-.191 5.937 1.128-4.23 4.512-6.886 7.838-7.2 0 0-.063 1.45-.063 4.928-3.951.757-6.647 3.787-6.774 10.796-.127 7.009.127 16.36.127 16.36s-1.504 0-4.83.064c0-.016 0-16.248-.122-30.82Zm12.287 23.604c0-5.495 3.389-10.36 11.725-11.431 0 0-.058-2.086-.121-3.414-.191-3.851-.753-5.617-2.823-5.617-2.511 0-3.178 2.523-3.135 6.817 0 0-1.944-.25-4.513-.315-.19-6.817 2.257-10.294 7.838-10.294 4.889 0 7.145 3.413 7.335 9.35.376 14.082.122 23.555.122 23.555s-1.059.064-3.887.128c0 0 .191-2.528.254-5.622-.943 3.094-3.326 4.737-6.148 4.737-3.448 0-6.647-2.336-6.647-7.894Zm11.874-8.668c-5.265.944-7.15 4.422-7.15 8.145 0 3.03 1.133 4.672 3.178 4.672 2.044 0 4.014-2.021 4.014-8.08 0-2.07 0-3.27-.042-4.737Zm25.748-2.07c-.873.25-2.944.63-2.944.63 0 2.277.063 8.337.249 16.487 0 0-2.119-.064-4.888.064 0 0 .121-16.109-.191-42.758a28.929 28.929 0 0 1 5.397-.624c8.208 0 11.783 4.8 11.783 13.069 0 5.686-2.007 9.286-5.328 11.43l6.461 20.025-4.893.629s-2.007-7.142-5.646-18.952Zm4.518-12.802c0-5.494-2.007-9.222-6.085-9.222-.532.007-1.063.05-1.589.128.064 11.201.191 18.754.191 18.754 4.035-.266 7.483-2.603 7.483-9.676v.016Zm6.397 14.824c0-8.78 2.257-16.36 8.776-16.36s8.902 7.137 8.902 16.232c0 11.116-2.754 16.802-8.966 16.802-6.715 0-8.712-6.572-8.712-16.674Zm12.711-.128c0-7.137-1.128-12.631-3.887-12.631-2.76 0-3.888 5.686-3.888 12.508 0 9.03.879 13.389 3.888 13.389 3.008 0 3.903-5.244 3.903-13.266h-.016Zm7.351 5.179s1.631.128 4.581.315c-.376 5.243.815 7.393 3.447 7.393 1.695 0 3.135-1.067 3.135-4.171 0-7.767-11.476-5.745-11.476-16.99 0-4.165 2.51-8 7.775-8 5.958 0 7.944 4.8 7.414 12.188 0 0-1.817-.064-4.327-.192.376-5.052-.249-8.21-3.008-8.21-2.193 0-3.321 1.894-3.321 4.23 0 8.466 11.471 6.508 11.471 16.925 0 5.815-3.511 8.002-7.71 8.002-5.662.005-8.543-3.782-7.981-11.49Zm17.619.694h4.565c-.317 4.614.816 6.635 3.448 6.635 1.695 0 3.135-1.013 3.135-4.043 0-2.134-.63-3.793-5.296-6.252-4.448-2.336-6.207-5.371-6.207-9.665 0-4.609 2.95-8.001 7.775-8.001 5.825 0 7.774 4.678 7.462 11.687 0 0-1.817 0-4.327.064.254-5.334-.376-7.959-3.072-7.959-2.192 0-3.32 1.894-3.32 4.23 0 2.843 1.25 4.673 4.888 6.63 5.624 3.014 6.636 5.537 6.636 9.138 0 5.494-3.448 8-7.711 8-5.338.022-8.474-3.514-7.976-10.465Zm17.18 3.035c0-5.815 3.893-10.135 11.731-11.81 0 0-.064-2.278-.127-3.6-.128-3.916-.752-5.687-2.823-5.687-2.51 0-3.448 2.715-3.135 7.468 0 0-1.88.064-4.512.064-.53-6.758 2.001-11.303 7.838-11.303 4.888 0 7.144 3.409 7.334 9.346.376 14.081.127 23.432.127 23.432s-1.059 0-3.892.064c0 0 .191-2.278.254-5.243a6.25 6.25 0 0 1-2.265 3.411 6.178 6.178 0 0 1-3.878 1.261c-3.909-.016-6.652-2.923-6.652-7.403Zm11.853-8.908c-5.455 1.643-7.15 4.928-7.15 8.273 0 2.528.943 4.294 3.178 4.294 1.943 0 4.014-1.894 4.014-7.895.021-2.016.021-3.344-.042-4.672Z" fill="#000"/><path d="M29.287 58.995c16.174 0 29.286-13.207 29.286-29.498C58.573 13.207 45.461 0 29.287 0 13.112 0 0 13.206 0 29.497s13.112 29.498 29.287 29.498Z" fill="#E2007A"/><path d="M10.592 32.17c8.277 3.557 7.515 3.125 8.124 3.627 1.16.95-.779 11.767-.498 11.537 0 0 14.21 1.1 15.252-12.647.53-6.752-5.174-12.268-11.555-12.268a11.603 11.603 0 0 0-7.411 2.815 11.756 11.756 0 0 0-3.912 6.936Z" fill="#fff"/><path fill-rule="evenodd" clip-rule="evenodd" d="M27.047 12.695c2.049-2.742 5.327-3.734 7.318-2.235 1.992 1.499 1.939 4.96-.116 7.708-2.055 2.747-5.333 3.734-7.324 2.235-1.992-1.5-1.933-4.96.122-7.708Zm10.025 7.745c2.896-2.203 6.434-2.395 7.901-.437 1.467 1.957.297 5.334-2.605 7.526-2.903 2.192-6.43 2.395-7.897.437-1.467-1.957-.291-5.318 2.6-7.526Zm2.118 13.277c3.178-1.425 6.567-.688 7.595 1.637 1.027 2.326-.71 5.366-3.888 6.785-3.177 1.419-6.572.688-7.6-1.638-1.027-2.325.716-5.365 3.893-6.784Z" fill="#fff"/></g><defs><clipPath id="a"><path fill="#fff" d="M0 0h340v59H0z"/></clipPath></defs></svg>