<svg version="1.1" id="Capa_1" xmlns="http://www.w3.org/2000/svg" x="0" y="0" viewBox="0 0 48 48" style="enable-background:new 0 0 48 48" xml:space="preserve"><style>.st1{fill:#fa0678}</style><path d="M24.2 47.5c12.8 0 23.2-10.4 23.2-23.2S37.1 1 24.2 1 1 11.4 1 24.2s10.4 23.3 23.2 23.3z" style="fill:none;stroke:#fa0678"/><path class="st1" d="M34.3 15.6v-.1c0-.1 0-.2-.1-.3-.2-.5-.3-1-.5-1.5 0-.1-.1-.2-.2-.2l-.3-.1v.6c0 .2.1.4.1.6.1.3.1.7.1 1 .1 1.4-.3 2.4-1.2 3-.4.3-.8.5-1.2.8l-.2.1c-.2.1-.5.3-.7.4-.4.2-.8.4-1.2.7-1.2.8-1.7 2-1.6 3.6.1 1.2.3 2.4.7 3.6.3.9.6 1.9 1 2.8l.4 1.2c.1.3.1.4-.1.6l-.2.2-.2.1c-.3.2-.6.4-.9.5-.4.2-.8.4-1.2.5-.3.1-.5.2-.8.4l-.1.1v-.1l.1-.3c.1-.6.2-1.3.3-1.9.1-.5.1-1.1.1-1.6v-.1c0-.6-.2-.9-.8-1-.4-.1-.9-.1-1.4-.1-1 0-2 .1-3.1.3l-1.6.4 2.2.1c.4 0 .9 0 1.3.1.7 0 1.2.1 1.8.4.4.2.4.2.4.7 0 .5-.1.9-.1 1.4v.8c0 .4-.1.8-.1 1.2l-.1-.1c-.1 0-.3-.1-.5-.1-.5-.1-1.1-.1-1.6-.2-.8-.1-1.6-.2-2.5-.3-1.2-.1-2.1-.4-3-.8-1.3-.6-2-1.6-2.3-3-.2-1.1-.1-2.3.3-3.5.6-1.6 1.3-3.1 2.2-4.6.1-.1.1-.2.1-.3l.1-.3-.1-.1-.1-.1h-.1s-.1 0-.1.1l-.3.3c-.3.2-.5.5-.8.8-1.3 1.5-2.1 3.4-2.6 5.7-.4 2.3.4 4.7 2.2 6 .9.6 1.9 1 3.4 1.1.6.1 1.3.1 1.9.1.7 0 1.4 0 2.1-.1h.1c.4 0 .8 0 1.1-.1h.3c.1 0 .1-.1.2-.1h.1l.1.2.2-.1.1-.1.2.1c.1 0 .1.1.2.1h.4c.4 0 .9-.1 1.3-.2.8-.1 1.5-.4 2-.9.6-.5.8-1 .9-1.6 0-.4-.1-.9-.2-1.2-.2-.7-.5-1.3-.7-1.9l-.1-.4c-.5-1.3-1-2.7-1.2-4.1-.2-1.2.1-2.1 1-2.8l.9-.6.3-.2c.2-.1.4-.2.6-.4.4-.3.9-.5 1.3-.8.8-.6 1.3-1.4 1.6-2.3 0-.1.1-.3.1-.4v-.2l.3-1.5z"/><path class="st1" d="M19.6 23.5c.3.4.8.6 1.3.7.3.1.6.1.9.1.4 0 .7 0 1.1-.1.6-.1 1-.3 1.3-.6l.5-.5h-.9c-.1 0-.3 0-.4.1-.2 0-.4.1-.7.1-.8.1-1.5-.1-2-.6-.8-.7-1.2-1.6-1.5-2.7-.5-2.1.5-4 2.2-4.7 1.2-.5 2.4-.6 3.7-.3 1.2.3 2.3.8 3.3 1.3.6.3 1.2.5 1.7.6.6.1 1.1 0 1.4-.4.3-.3.5-.8.5-1.4 0-.3 0-.7-.3-1.2l-.3-.4-.1.7v.3c-.1.5-.2.8-.5 1-.2.2-.6.2-.9 0-.7-.3-1.3-.6-2-1l-.4-.2c-1.7-.9-3.3-1.2-4.8-.9-1.2.2-2.1.5-2.9 1.1-1.7 1.2-2.5 3.1-2.1 5.4.3 1.4.9 2.5 1.9 3.6z"/></svg>