<svg xmlns="http://www.w3.org/2000/svg" viewBox="0 0 600 600" style="enable-background:new 0 0 600 600" xml:space="preserve"><path d="M240.5 470.6c-1.9 0-3.8-.3-5.6-.7-5.6-1.5-10.3-5.1-13.1-10.1-2.9-5-3.6-10.8-2.2-16.4 1.4-5.6 5.1-10.2 10-13.1 5-2.9 10.8-3.7 16.4-2.2l31.3-116.6-97.8 73.6c.1 2.2-.2 4.3-.7 6.4-1.5 5.6-5.1 10.2-10 13.1-5 2.9-10.9 3.6-16.4 2.2-5.6-1.4-10.2-5.1-13.1-10s-3.7-10.8-2.2-16.4c3.1-11.5 15-18.3 26.4-15.2 3.1.8 6 2.3 8.4 4.4l99-74.5-103.7-27.8c-1.9 3.1-4.5 5.6-7.6 7.4-5 2.9-10.9 3.6-16.4 2.2-5.6-1.5-10.2-5.1-13.1-10.1-2.9-5-3.6-10.8-2.2-16.4 1.4-5.6 5.1-10.2 10-13.1 5-2.9 10.8-3.7 16.4-2.2 7.5 2 13.2 7.8 15.2 15.2L277 279l-48.5-99.4c-3.8 1.1-7.8 1.2-11.5.1-5.6-1.5-10.3-5.1-13.2-10.1-2.9-5-3.6-10.8-2.2-16.4 1.5-5.6 5.1-10.2 10.1-13.1 4-2.3 8.5-3.2 13.1-2.7l1.7-.8.5 1.2c.4.1.7.2 1 .3 5.6 1.5 10.3 5.1 13.2 10 2.9 5 3.6 10.8 2.2 16.4-.4 1.4-.8 2.6-1.4 3.8l47.6 97.8 27-100.8c-4.1-5.3-5.5-12.2-3.7-18.8 3.2-11.5 15-18.3 26.4-15.2 11.5 3.1 18.3 14.9 15.2 26.4-2.7 10-12.2 16.9-22.6 16L306.5 268l85.5-64.4c.1-.9.3-1.9.5-2.8v-.1c2.9-10.6 13.4-17.4 24.1-15.8l1.4-1 1.2 1.5c11.4 3.2 18.1 15 15.1 26.3-2.5 9.5-11.2 16.1-20.9 16.1-1.9 0-3.7-.3-5.6-.7-4.1-1.1-7.7-3.3-10.4-6.4L309 287.3l127 34c4.5-2 9.6-2.4 14.3-1.2 11.5 3.1 18.3 15 15.2 26.4-1.5 5.6-5.1 10.2-10.1 13.1-5 2.9-10.9 3.6-16.4 2.2-5.6-1.5-10.3-5.1-13.1-10.1-2.8-4.9-3.6-10.6-2.3-16.1l-115-30.5 57.1 117.1c1.4 1.4 2.6 3 3.6 4.7 2.9 5 3.6 10.8 2.2 16.4-2.5 9.4-11.1 16-20.9 16-1.9 0-3.8-.3-5.6-.7-11.5-3.1-18.3-15-15.2-26.4 1.9-7.2 7.5-12.8 14.4-15.1l-50-102.7-33.8 126.3c1.8 4.4 2.2 9.3.9 13.9-1.5 5.6-5.1 10.2-10.1 13.1-3.3 2-7 2.9-10.7 2.9z" style="fill:#e6007e"/><path d="m220.6 19.9 15.7-3.4c9.4-2 14.9 2.4 16.3 8.9 1.3 5.8-1.6 9.1-5.2 11l.1.4c4.2-.6 9.9 2.2 11.5 9.3 1.5 6.7-1.8 12.9-12.4 15.2l-16.2 3.5-9.8-44.9zm19.8 16.3c4.9-1.1 8.1-5 7.1-9.7-.9-3.9-4.2-6.5-10.1-5.2l-10.3 2.2 3.2 14.9 10.1-2.2zm5.1 20.2c7.1-1.5 9.1-5.3 8.3-9.2-1-4.6-5.5-7.7-11.4-6.4l-11 2.4 3.4 15.6 10.7-2.4zm51.7.3c-11.7 0-20.2-9.1-20.2-23.6 0-14.5 8.6-23.6 20.3-23.5 11.7 0 20.2 9.1 20.2 23.6 0 14.5-8.6 23.5-20.3 23.5zm.1-42c-8.3 0-14.9 6.4-14.9 18.3s6.5 18.4 14.8 18.4 14.9-6.4 14.9-18.3c.1-11.9-6.5-18.4-14.8-18.4zm72.9 52-5.2-1.2-16.2-40.8-.4-.1-8.2 35.1-5.4-1.3 10.5-44.7 5.2 1.2 16.2 40.9.4.1 8.2-35.2 5.3 1.2-10.4 44.8zm34.3 15.1c-10.5-5.2-14.2-17.1-7.8-30.1 6.4-13 18-17.4 28.6-12.2 10.5 5.2 14.2 17.1 7.8 30.1-6.4 13-18 17.3-28.6 12.2zM423 44.1c-7.5-3.7-16.2-.8-21.5 9.9-5.3 10.7-2.2 19.4 5.3 23.1 7.5 3.7 16.2.8 21.5-9.9 5.2-10.8 2.2-19.4-5.3-23.1zm67.6 39.8 4 3.9-28.6 29.3 15.3 14.9-3.4 3.5-19.3-18.8 32-32.8zm1.6 69.7-3.4-4.4 36.4-28 3.4 4.4-36.4 28zm51.8-6.1 7.7 14.1c4.6 8.4 2 15-3.9 18.2-5.2 2.9-9.1 1-12-1.9l-.4.2c1.8 3.8.8 10.1-5.6 13.6-6 3.3-12.8 2-18.1-7.5l-8-14.5 40.3-22.2zm-27.9 34.3c3.5 6.4 7.7 7.2 11.2 5.3 4.1-2.2 5.8-7.5 2.9-12.8l-5.5-9.9-14 7.7 5.4 9.7zm17.9-10.6c2.4 4.4 7.1 6.3 11.3 4 3.5-1.9 5.1-5.9 2.1-11.2l-5.1-9.2-13.4 7.4 5.1 9zm35.7 28.8 4.6 14.8c3.2 10.3-1 16.7-8.8 19.1-5.8 1.8-11.2.6-14.8-4.4l-15 15.6-1.9-6.2 14.2-14.6c-.1-.4-.2-.7-.4-1.1l-3-9.6-17.1 5.4-1.7-5.3 43.9-13.7zm-17.3 21.6c2.2 7 6.3 8.8 11.5 7.1 5.3-1.6 7.9-5.5 5.7-12.6l-2.9-9.3-17.2 5.4 2.9 9.4zm31.7 34.2 3 27.6-4.9.5-2.4-22-15.4 1.7 2.2 20.6-4.9.5-2.2-20.6-15.5 1.7 2.4 22.4-4.9.5-3-27.9 45.6-5zm3.3 54.7-1.3 15.5c-.9 10.7-7.3 15-15.4 14.4-6.1-.5-10.6-3.7-12.1-9.7l-19.8 8.7.5-6.4 18.7-8.1c0-.4 0-.8.1-1.2l.9-10-17.9-1.5.5-5.5 45.8 3.8zm-24.2 13.4c-.6 7.3 2.5 10.5 8 10.9 5.5.5 9.4-2.1 10-9.5l.8-9.7-18-1.5-.8 9.8zm-29.4 36.7 1.3-5.4 44.6 10.8-1.3 5.4-44.6-10.8zm59.2 14.6-1.5 6-8.5-9.2 1.1-4.5 8.9 7.7zm-62.9.9 36 33.2-2.2 5.3-48.9-2 2.2-5.4 13.8.7 7.1-17.2-10.2-9.2 2.2-5.4zm6.2 32.1 22 1.1.1-.3-16.4-14.8-5.7 14zm-28.2 56.6c4.2 3.5 4.7 9.7 1.2 13.9-3.5 4.2-9.7 4.7-13.9 1.2-4.2-3.5-4.7-9.7-1.2-13.9 3.5-4.2 9.8-4.7 13.9-1.2zm-41.2 71.4-4.6 3.1-22.6-34.3-17.8 11.7-2.7-4.1 22.5-14.8 25.2 38.4zm-61.4-15.8 1.4 48.9-5.3 2.1-32.7-36.4 5.4-2.2 9.1 10.4 17.2-6.9-.5-13.8 5.4-2.1zm-18.7 26.8 14.5 16.5.3-.1-.9-22-13.9 5.6zm-56.5 42.2-15.5 1c-10.8.7-16-5.4-16.5-13.5s3.9-14.9 14.5-15.6l10-.7-1.1-16.7 5.6-.4 3 45.9zm-17-23.1c-7.4.5-9.9 4.8-9.6 10.3.4 5.5 3.5 9.4 10.9 8.9l9.8-.6-1.3-19.2-9.8.6zm-25.9-20.6-22.2 43.6-5.7-.7-11.2-47.6 5.8.7 3 13.5 18.4 2.2 6.1-12.4 5.8.7zm-29.2 14.5 4.8 21.4h.4l9.8-19.7-15-1.7zM199 525.4l5.1 1.8 11.8 42.3.4.1 11.9-34.1 5.3 1.8-15.1 43.4-5.1-1.8-11.8-42.4-.4-.1-12.1 34.1-5.2-1.8 15.2-43.3zm-39.1 31.9-29.4-18 2.6-4.2 12.3 7.5 21.4-35 4.7 2.9-21.4 35 12.3 7.5-2.5 4.3zm-49.8-33.8-20.4-18.8 3.3-3.6 16.3 15 10.5-11.4-15.3-14 3.3-3.6 15.3 14 10.6-11.5-16.6-15.2 3.3-3.6 20.7 19-31 33.7zm-38.6-39.1-9.2-12.5c-6.4-8.7-4.4-16.1 2.1-20.9 4.9-3.6 10.4-4.2 15.5-.7l9.2-19.6 3.8 5.2-8.7 18.4c.2.3.5.6.7.9l5.9 8.1 14.5-10.6 3.3 4.5-37.1 27.2zm9.4-26c-4.4-5.9-8.8-6.3-13.2-3-4.4 3.3-5.7 7.7-1.3 13.7l5.8 7.9 14.5-10.7-5.8-7.9zm2-37.8-48.8 3.9-2.4-5.2 34.6-34.6 2.4 5.3-9.9 9.6 7.8 16.9 13.7-1.3 2.6 5.4zm-27.7-17.2-15.7 15.4.2.3 21.9-2-6.4-13.7zm-45.1-54.2-1.8-15.4c-1.3-10.7 4.1-16.2 12.2-17.1 6.1-.7 11.1 1.4 13.8 7l17.6-12.5.8 6.4L36 329.3c.1.4.1.8.2 1.2l1.2 10 17.8-2.1.7 5.5-45.8 5.3zm21-18c-.9-7.3-4.5-9.8-10-9.1-5.5.6-8.7 3.9-7.9 11.3l1.1 9.7 17.9-2.1-1.1-9.8zm23-54c-1.1 11.7-11 19.3-25.4 17.9-14.5-1.4-22.7-10.8-21.6-22.5s11-19.3 25.4-17.9c14.5 1.4 22.7 10.8 21.6 22.5zm-41.8-4.1c-.8 8.3 5 15.4 16.9 16.6 11.9 1.2 18.9-4.7 19.7-13 .8-8.3-5-15.4-16.9-16.6-11.9-1.2-18.9 4.7-19.7 13zm12.1-59.9c-1.9 5.8 0 10.6 4.2 12 4.7 1.5 8.1-3.2 10-6.1l2.6-4.1c2.6-4.1 7.8-11.1 16-8.5 7.1 2.3 10.8 9.8 7.6 19.8-3 9.4-9.7 13.7-17.1 11.9l1.7-5.5c5.1 1.2 8.9-2.7 10.5-7.9 1.9-6.1.2-11.7-4.5-13.2-4.4-1.4-7.3 2.2-10 6.4l-3.3 4.9c-4.1 6.2-9 9.4-14.9 7.5-7.3-2.3-10.1-10.5-7.4-18.9 2.7-8.5 9.6-13 16.3-11.1l-1.6 5.1c-4.6-.8-8.5 2.4-10.1 7.7zm22.5-52c-3 5.3-2.1 10.4 1.7 12.6 4.3 2.4 8.5-1.5 11-4.1l3.4-3.5c3.4-3.5 9.8-9.3 17.3-5.2 6.5 3.6 8.7 11.7 3.6 21-4.8 8.6-12.2 11.5-19.1 8.3l2.8-5c4.8 2.1 9.2-.9 11.9-5.7 3.1-5.6 2.5-11.4-1.9-13.9-4-2.2-7.6.7-11.1 4.3l-4.2 4.2c-5.3 5.3-10.7 7.4-16.1 4.4-6.7-3.7-7.9-12.3-3.6-19.9 4.3-7.8 11.9-10.8 18.1-7.7l-2.6 4.7c-4.2-1.7-8.5.7-11.2 5.5zm51.7-5.3-23.8-42.7 3.7-4.3 45.8 17.2-3.8 4.4-12.9-5-12.1 14.1 6.8 12-3.7 4.3zm4.2-32.3-20.5-8-.2.3L93 135l9.8-11.4zm44.4-44.8c-2.9-4.6-1.6-10.7 3-13.6 4.6-2.9 10.7-1.6 13.6 3 2.9 4.6 1.6 10.7-3 13.6-4.6 2.9-10.7 1.6-13.6-3z"/></svg>