<svg xmlns="http://www.w3.org/2000/svg" viewBox="0 0 48 48" style="enable-background:new 0 0 48 48" xml:space="preserve"><path d="M24.2 47.5c12.8 0 23.2-10.4 23.2-23.2S37.1 1 24.2 1 1 11.4 1 24.2s10.4 23.3 23.2 23.3z" style="fill:none;stroke:#fa0678"/><path d="M14.1 33.4c-.6 0-1.1-.2-1.5-.6s-.6-.9-.6-1.5V16.8c0-.6.2-1.1.6-1.5.4-.4.9-.6 1.5-.6h19.8c.6 0 1.1.2 1.5.6.4.4.6.9.6 1.5v14.4c0 .6-.2 1.1-.6 1.5s-.9.6-1.5.6c0 .1-19.8.1-19.8.1zm9.9-9.2-10.7-7v14.1c0 .2.1.4.2.6.2.2.4.2.6.2h19.8c.2 0 .4-.1.6-.2.2-.2.2-.4.2-.6V17.1L24 24.2zm0-1.5L34.3 16H13.7L24 22.7zm-10.7-5.6V16v15.3c0 .2.1.4.2.6.2.2.4.2.6.2h-.8v-15z" style="fill:#fa0678"/></svg>