<svg width="48" height="48" fill="none" xmlns="http://www.w3.org/2000/svg"><path d="M23.876 47.139c12.839 0 23.247-10.416 23.247-23.264C47.123 11.027 36.715.612 23.876.612 11.036.612.628 11.027.628 23.875c0 12.849 10.409 23.264 23.248 23.264Z" stroke="#FA0678"/><path d="M17.97 10.813c-4.147 0-7.415 3.306-7.415 7.224v11.631c0 4.04 3.393 7.224 7.414 7.224h11.938c4.147 0 7.414-3.306 7.414-7.224V18.037c0-4.04-3.393-7.224-7.414-7.224H17.97Zm0 2.938h11.937c2.513 0 4.524 1.96 4.524 4.408v11.632c0 2.448-2.01 4.408-4.524 4.408H17.97c-2.513 0-4.523-1.96-4.523-4.408V18.159c0-2.449 2.01-4.408 4.523-4.408Zm13.32 1.47c-.88 0-1.508.612-1.508 1.469 0 .857.628 1.47 1.508 1.47s1.507-.613 1.507-1.47-.628-1.47-1.507-1.47Zm-7.415 1.469c-4.146 0-7.413 3.306-7.413 7.224s3.392 7.224 7.413 7.224c4.022 0 7.415-3.306 7.415-7.224s-3.268-7.224-7.415-7.224Zm0 2.816c2.514 0 4.524 1.959 4.524 4.408 0 2.448-2.01 4.407-4.524 4.407-2.513 0-4.523-1.959-4.523-4.407 0-2.45 2.01-4.408 4.523-4.408Z" fill="#FA0678"/></svg>