<svg xmlns="http://www.w3.org/2000/svg" viewBox="0 0 56.5 59" style="enable-background:new 0 0 56.5 59" xml:space="preserve"><path d="M28.3 57.6c15.4 0 27.9-12.6 27.9-28.1S43.7 1.4 28.3 1.4.4 14 .4 29.5s12.5 28.1 27.9 28.1z" style="fill:#e2007a"/><path d="M10.5 32.1c7.9 3.4 7.1 3 7.7 3.4 1.1.9-.8 11.2-.5 10.9 0 0 13.5 1 14.6-12 .5-6.5-4.9-11.7-11-11.7-2.6 0-5 1-7 2.7-2.1 1.7-3.4 4.1-3.8 6.7z" style="fill:#fff"/><path d="M26.2 13.5c1.9-2.6 5-3.5 6.9-2.1 1.9 1.4 1.8 4.8-.1 7.3-2 2.6-5 3.5-6.9 2.1-2-1.4-1.9-4.7.1-7.3zm9.5 7.3c2.8-2.1 6.1-2.3 7.5-.4 1.4 1.9.3 5-2.5 7.1-2.8 2.1-6.1 2.3-7.5.4-1.4-1.8-.3-4.9 2.5-7.1zm2 12.7c3-1.3 6.3-.7 7.2 1.5s-.7 5.1-3.7 6.5-6.3.7-7.2-1.5c-1-2.2.7-5.2 3.7-6.5z" style="fill-rule:evenodd;clip-rule:evenodd;fill:#fff"/></svg>