<svg xmlns="http://www.w3.org/2000/svg" viewBox="0 0 455.9 435.6" style="enable-background:new 0 0 455.9 435.6" xml:space="preserve"><path d="M165.5 406.3c-2.1 0-4.2-.3-6.2-.8-6.2-1.7-11.4-5.6-14.5-11.2-3.2-5.5-4-12-2.4-18.2 1.6-6.2 5.6-11.3 11.1-14.5 5.5-3.2 12-4.1 18.2-2.4l34.7-129.3L98 311.5c.1 2.4-.2 4.8-.8 7.1-1.7 6.2-5.6 11.3-11.1 14.5-5.5 3.2-12.1 4-18.2 2.4-6.2-1.6-11.3-5.6-14.5-11.1-3.2-5.5-4.1-12-2.4-18.2 3.4-12.7 16.6-20.3 29.3-16.9 3.4.9 6.6 2.6 9.3 4.9l109.7-82.6-115-30.8c-2.1 3.4-5 6.2-8.4 8.2-5.5 3.2-12.1 4-18.2 2.4-6.2-1.7-11.3-5.6-14.5-11.2-3.2-5.5-4-12-2.4-18.2 1.6-6.2 5.6-11.3 11.1-14.5 5.5-3.2 12-4.1 18.2-2.4 8.3 2.2 14.6 8.6 16.9 16.8l118.9 31.9-53.8-110.2c-4.2 1.2-8.6 1.3-12.8.1-6.2-1.7-11.4-5.6-14.6-11.2-3.2-5.5-4-12-2.4-18.2 1.7-6.2 5.6-11.3 11.2-14.5 4.4-2.6 9.4-3.6 14.5-3l1.9-.9.6 1.3c.4.1.8.2 1.1.3 6.2 1.7 11.4 5.6 14.6 11.1 3.2 5.5 4 12 2.4 18.2-.4 1.5-.9 2.9-1.6 4.2l52.8 108.4 29.9-111.7c-4.5-5.9-6.1-13.5-4.1-20.8 3.5-12.8 16.6-20.3 29.3-16.9 12.7 3.4 20.3 16.5 16.9 29.3-3 11.1-13.5 18.7-25.1 17.7l-28.1 104.7 94.8-71.4c.1-1 .3-2.1.6-3.1v-.1c3.2-11.8 14.8-19.3 26.7-17.5l1.5-1.1 1.3 1.7c12.6 3.5 20.1 16.6 16.7 29.2-2.8 10.5-12.4 17.8-23.2 17.8-2.1 0-4.1-.3-6.2-.8-4.5-1.2-8.5-3.7-11.5-7.1l-98 73.8 140.8 37.7c5-2.2 10.6-2.7 15.9-1.3 12.7 3.4 20.3 16.6 16.9 29.3-1.7 6.2-5.6 11.3-11.2 14.5-5.5 3.2-12.1 4-18.2 2.4-6.2-1.7-11.4-5.6-14.5-11.2-3.1-5.4-4-11.8-2.5-17.9L241 222.8l63.3 129.8c1.6 1.5 2.9 3.3 4 5.2 3.2 5.5 4 12 2.4 18.2-2.8 10.4-12.3 17.7-23.2 17.7-2.1 0-4.2-.3-6.2-.8-12.7-3.4-20.3-16.6-16.9-29.3 2.1-8 8.3-14.2 16-16.7L225 233.1l-37.5 140c2 4.9 2.4 10.3 1 15.4-1.7 6.2-5.6 11.3-11.2 14.5-3.6 2.2-7.7 3.3-11.8 3.3z" style="fill:#fff"/></svg>