<svg width="48" height="48" fill="none" xmlns="http://www.w3.org/2000/svg"><path d="M24.247 47.495c12.84 0 23.248-10.409 23.248-23.248S37.086 1 24.247 1 1 11.408 1 24.247c0 12.84 10.408 23.248 23.247 23.248Z" stroke="#FA0678"/><path d="M36.526 11.673c-.327.014-.647.09-.944.226-.538.206-6.194 2.394-11.852 4.58a2432.34 2432.34 0 0 0-7.836 3.026 264.989 264.989 0 0 1-3.916 1.497c-.519.181-1.267.472-1.768 1.06-.25.293-.438.822-.219 1.275.22.452.644.701 1.242.93l.019.006h.02c2.18.672 5.473 1.703 5.916 1.841.116.38 1.505 4.947 2.26 7.418a1.267 1.267 0 0 0 1.306.782c.16.005.318-.01.473-.046a2.268 2.268 0 0 0 1.014-.565c.503-.472 2.294-2.224 2.828-2.747l5.85 4.314.023.013a2.79 2.79 0 0 0 1.227.398c.407.035.813-.075 1.147-.31.37-.27.636-.715.77-1.296.455-1.985 3.567-16.76 4.1-19.224.332-1.252.175-2.224-.448-2.768a1.698 1.698 0 0 0-1.07-.41h-.144.002Zm.065 1.21a.551.551 0 0 1 .35.11c.152.132.35.532.07 1.567-1.507 6.686-2.821 13.52-4.105 19.243-.088.384-.213.523-.304.59a.486.486 0 0 1-.349.08 1.953 1.953 0 0 1-.665-.217l-9.48-6.987c.932-.879 7.172-6.767 10.587-9.88.373-.357.072-1-.427-.993-.642.13-1.169.587-1.75.872-4.216 2.464-12.19 7.291-12.897 7.715a1555.08 1555.08 0 0 0-5.962-1.856 1.634 1.634 0 0 1-.527-.285c.166-.194.848-.563 1.246-.704.303-.106 1.773-.67 3.951-1.509 2.178-.838 5.005-1.928 7.836-3.026l11.895-4.599c.165-.079.346-.12.53-.12h.001Zm-14.88 15.599 2.372 1.747a323.96 323.96 0 0 1-2.659 2.58l.288-4.327Z" fill="#FA0678"/></svg>