<svg width="49" height="48" fill="none" xmlns="http://www.w3.org/2000/svg"><path d="M24.553 47.139c12.839 0 23.247-10.416 23.247-23.264C47.8 11.027 37.392.612 24.553.612c-12.84 0-23.248 10.415-23.248 23.263 0 12.849 10.409 23.264 23.248 23.264Z" stroke="#FA0678"/><path d="M39.113 15.215a11.34 11.34 0 0 1-2.836 2.857c.011.21.016.45.016.716a15.6 15.6 0 0 1-2.691 8.693 16.95 16.95 0 0 1-3.25 3.602 14.594 14.594 0 0 1-4.534 2.503 16.955 16.955 0 0 1-5.675.933 16.108 16.108 0 0 1-8.704-2.48c.45.049.902.074 1.355.075a11.32 11.32 0 0 0 7.052-2.37 5.604 5.604 0 0 1-3.298-1.101 5.445 5.445 0 0 1-2.004-2.738 5.82 5.82 0 0 0 2.564-.093 5.557 5.557 0 0 1-3.259-1.908 5.27 5.27 0 0 1-1.294-3.515v-.068c.788.429 1.67.666 2.572.691a5.551 5.551 0 0 1-1.845-1.97 5.29 5.29 0 0 1-.682-2.626c-.006-.978.26-1.94.768-2.784a16.091 16.091 0 0 0 5.176 4.082 16.103 16.103 0 0 0 6.524 1.698c-.1-.412-.15-.835-.15-1.258a5.208 5.208 0 0 1 .417-2.124 5.323 5.323 0 0 1 1.247-1.787 5.693 5.693 0 0 1 1.884-1.217 5.813 5.813 0 0 1 4.43.066c.696.3 1.323.733 1.844 1.273a11.49 11.49 0 0 0 3.604-1.347 5.375 5.375 0 0 1-2.493 3.061 11.583 11.583 0 0 0 3.262-.864Z" fill="#FA0678"/></svg>