<svg width="48" height="48" fill="none" xmlns="http://www.w3.org/2000/svg"><path d="M24.247 47.495c12.84 0 23.248-10.409 23.248-23.248S37.086 1 24.247 1 1 11.408 1 24.247c0 12.84 10.408 23.248 23.247 23.248Z" stroke="#FA0678"/><path d="M24.125 14.341s-7.781 0-9.723.523a3.1 3.1 0 0 0-2.204 2.204 44.107 44.107 0 0 0-.523 7.233c-.024 2.421.15 4.84.523 7.233a3.101 3.101 0 0 0 2.204 2.204c1.942.523 9.723.523 9.723.523s7.781 0 9.723-.523a3.124 3.124 0 0 0 2.204-2.204c.372-2.392.547-4.812.523-7.233.024-2.421-.15-4.84-.523-7.233a3.125 3.125 0 0 0-2.204-2.204c-1.942-.523-9.723-.523-9.723-.523Zm0 2.49a66.496 66.496 0 0 1 9.088.436.623.623 0 0 1 .436.436 40.07 40.07 0 0 1 .436 6.598 40.069 40.069 0 0 1-.436 6.598.623.623 0 0 1-.436.436 66.496 66.496 0 0 1-9.088.436 66.496 66.496 0 0 1-9.088-.436.622.622 0 0 1-.436-.436 40.069 40.069 0 0 1-.436-6.598 40.07 40.07 0 0 1 .436-6.598.597.597 0 0 1 .436-.436 66.496 66.496 0 0 1 9.088-.436Zm-2.49 3.163v8.615l7.47-4.308-7.47-4.307Z" fill="#FA0678"/></svg>