<?xml version="1.0" encoding="utf-8"?>
<!-- Generator: Adobe Illustrator 25.4.1, SVG Export Plug-In . SVG Version: 6.00 Build 0)  -->
<svg version="1.1" id="Capa_1" xmlns="http://www.w3.org/2000/svg" xmlns:xlink="http://www.w3.org/1999/xlink" x="0px" y="0px"
	 viewBox="0 0 600 600" style="enable-background:new 0 0 600 600;" xml:space="preserve">
<style type="text/css">
	.st0{fill:#E6007E;}
</style>
<g>
	<g>
		<g>
			<path class="st0" d="M240.5,470.6c-1.9,0-3.8-0.3-5.6-0.7c-5.6-1.5-10.3-5.1-13.1-10.1c-2.9-5-3.6-10.8-2.2-16.4
				c1.4-5.6,5.1-10.2,10-13.1c5-2.9,10.8-3.7,16.4-2.2l0,0l31.3-116.6l-97.8,73.6c0.1,2.2-0.2,4.3-0.7,6.4
				c-1.5,5.6-5.1,10.2-10,13.1c-5,2.9-10.9,3.6-16.4,2.2c-5.6-1.4-10.2-5.1-13.1-10s-3.7-10.8-2.2-16.4c3.1-11.5,15-18.3,26.4-15.2
				c3.1,0.8,6,2.3,8.4,4.4l99-74.5l-103.7-27.8c-1.9,3.1-4.5,5.6-7.6,7.4c-5,2.9-10.9,3.6-16.4,2.2c-5.6-1.5-10.2-5.1-13.1-10.1
				c-2.9-5-3.6-10.8-2.2-16.4c1.4-5.6,5.1-10.2,10-13.1c5-2.9,10.8-3.7,16.4-2.2c7.5,2,13.2,7.8,15.2,15.2L277,279l-48.5-99.4
				c-3.8,1.1-7.8,1.2-11.5,0.1c-5.6-1.5-10.3-5.1-13.2-10.1c-2.9-5-3.6-10.8-2.2-16.4c1.5-5.6,5.1-10.2,10.1-13.1
				c4-2.3,8.5-3.2,13.1-2.7l1.7-0.8l0.5,1.2c0.4,0.1,0.7,0.2,1,0.3c5.6,1.5,10.3,5.1,13.2,10c2.9,5,3.6,10.8,2.2,16.4
				c-0.4,1.4-0.8,2.6-1.4,3.8l47.6,97.8l27-100.8c-4.1-5.3-5.5-12.2-3.7-18.8c3.2-11.5,15-18.3,26.4-15.2
				c11.5,3.1,18.3,14.9,15.2,26.4c-2.7,10-12.2,16.9-22.6,16L306.5,268l85.5-64.4c0.1-0.9,0.3-1.9,0.5-2.8v-0.1
				c2.9-10.6,13.4-17.4,24.1-15.8l1.4-1l1.2,1.5c11.4,3.2,18.1,15,15.1,26.3c-2.5,9.5-11.2,16.1-20.9,16.1c-1.9,0-3.7-0.3-5.6-0.7
				c-4.1-1.1-7.7-3.3-10.4-6.4l-88.4,66.6l127,34c4.5-2,9.6-2.4,14.3-1.2l0,0c11.5,3.1,18.3,15,15.2,26.4
				c-1.5,5.6-5.1,10.2-10.1,13.1c-5,2.9-10.9,3.6-16.4,2.2c-5.6-1.5-10.3-5.1-13.1-10.1c-2.8-4.9-3.6-10.6-2.3-16.1l-115-30.5
				l57.1,117.1c1.4,1.4,2.6,3,3.6,4.7c2.9,5,3.6,10.8,2.2,16.4c-2.5,9.4-11.1,16-20.9,16c-1.9,0-3.8-0.3-5.6-0.7
				c-11.5-3.1-18.3-15-15.2-26.4c1.9-7.2,7.5-12.8,14.4-15.1l-50-102.7l-33.8,126.3c1.8,4.4,2.2,9.3,0.9,13.9
				c-1.5,5.6-5.1,10.2-10.1,13.1C247.9,469.7,244.2,470.6,240.5,470.6z"/>
		</g>
	</g>
	<g>
		<path d="M220.6,19.9l15.7-3.4c9.4-2,14.9,2.4,16.3,8.9c1.3,5.8-1.6,9.1-5.2,11l0.1,0.4c4.2-0.6,9.9,2.2,11.5,9.3
			c1.5,6.7-1.8,12.9-12.4,15.2l-16.2,3.5L220.6,19.9z M240.4,36.2c4.9-1.1,8.1-5,7.1-9.7c-0.9-3.9-4.2-6.5-10.1-5.2l-10.3,2.2
			l3.2,14.9L240.4,36.2z M245.5,56.4c7.1-1.5,9.1-5.3,8.3-9.2c-1-4.6-5.5-7.7-11.4-6.4l-11,2.4l3.4,15.6L245.5,56.4z"/>
		<path d="M297.2,56.7c-11.7,0-20.2-9.1-20.2-23.6c0-14.5,8.6-23.6,20.3-23.5c11.7,0,20.2,9.1,20.2,23.6
			C317.5,47.7,308.9,56.7,297.2,56.7z M297.3,14.7c-8.3,0-14.9,6.4-14.9,18.3c0,11.9,6.5,18.4,14.8,18.4c8.3,0,14.9-6.4,14.9-18.3
			C312.2,21.2,305.6,14.7,297.3,14.7z"/>
		<path d="M370.2,66.7l-5.2-1.2l-16.2-40.8l-0.4-0.1l-8.2,35.1l-5.4-1.3l10.5-44.7l5.2,1.2l16.2,40.9l0.4,0.1l8.2-35.2l5.3,1.2
			L370.2,66.7z"/>
		<path d="M404.5,81.8c-10.5-5.2-14.2-17.1-7.8-30.1c6.4-13,18-17.4,28.6-12.2c10.5,5.2,14.2,17.1,7.8,30.1
			C426.7,82.6,415.1,86.9,404.5,81.8z M423,44.1c-7.5-3.7-16.2-0.8-21.5,9.9c-5.3,10.7-2.2,19.4,5.3,23.1c7.5,3.7,16.2,0.8,21.5-9.9
			C433.5,56.4,430.5,47.8,423,44.1z"/>
		<path d="M490.6,83.9l4,3.9L466,117.1l15.3,14.9l-3.4,3.5l-19.3-18.8L490.6,83.9z"/>
		<path d="M492.2,153.6l-3.4-4.4l36.4-28l3.4,4.4L492.2,153.6z"/>
		<path d="M544,147.5l7.7,14.1c4.6,8.4,2,15-3.9,18.2c-5.2,2.9-9.1,1-12-1.9l-0.4,0.2c1.8,3.8,0.8,10.1-5.6,13.6
			c-6,3.3-12.8,2-18.1-7.5l-8-14.5L544,147.5z M516.1,181.8c3.5,6.4,7.7,7.2,11.2,5.3c4.1-2.2,5.8-7.5,2.9-12.8l-5.5-9.9l-14,7.7
			L516.1,181.8z M534,171.2c2.4,4.4,7.1,6.3,11.3,4c3.5-1.9,5.1-5.9,2.1-11.2l-5.1-9.2l-13.4,7.4L534,171.2z"/>
		<path d="M569.7,200l4.6,14.8c3.2,10.3-1,16.7-8.8,19.1c-5.8,1.8-11.2,0.6-14.8-4.4l-15,15.6l-1.9-6.2l14.2-14.6
			c-0.1-0.4-0.2-0.7-0.4-1.1l-3-9.6l-17.1,5.4l-1.7-5.3L569.7,200z M552.4,221.6c2.2,7,6.3,8.8,11.5,7.1c5.3-1.6,7.9-5.5,5.7-12.6
			l-2.9-9.3l-17.2,5.4L552.4,221.6z"/>
		<path d="M584.1,255.8l3,27.6l-4.9,0.5l-2.4-22l-15.4,1.7l2.2,20.6l-4.9,0.5l-2.2-20.6l-15.5,1.7l2.4,22.4l-4.9,0.5l-3-27.9
			L584.1,255.8z"/>
		<path d="M587.4,310.5l-1.3,15.5c-0.9,10.7-7.3,15-15.4,14.4c-6.1-0.5-10.6-3.7-12.1-9.7l-19.8,8.7l0.5-6.4l18.7-8.1
			c0-0.4,0-0.8,0.1-1.2l0.9-10l-17.9-1.5l0.5-5.5L587.4,310.5z M563.2,323.9c-0.6,7.3,2.5,10.5,8,10.9c5.5,0.5,9.4-2.1,10-9.5
			l0.8-9.7l-18-1.5L563.2,323.9z"/>
		<path d="M533.8,360.6l1.3-5.4l44.6,10.8l-1.3,5.4L533.8,360.6z M593,375.2l-1.5,6l-8.5-9.2l1.1-4.5L593,375.2z"/>
		<path d="M530.1,376.1l36,33.2l-2.2,5.3l-48.9-2l2.2-5.4l13.8,0.7l7.1-17.2l-10.2-9.2L530.1,376.1z M536.3,408.2l22,1.1l0.1-0.3
			L542,394.2L536.3,408.2z"/>
		<path d="M508.1,464.8c4.2,3.5,4.7,9.7,1.2,13.9c-3.5,4.2-9.7,4.7-13.9,1.2c-4.2-3.5-4.7-9.7-1.2-13.9
			C497.7,461.8,504,461.3,508.1,464.8z"/>
		<path d="M466.9,536.2l-4.6,3.1L439.7,505l-17.8,11.7l-2.7-4.1l22.5-14.8L466.9,536.2z"/>
		<path d="M405.5,520.4l1.4,48.9l-5.3,2.1l-32.7-36.4l5.4-2.2l9.1,10.4l17.2-6.9l-0.5-13.8L405.5,520.4z M386.8,547.2l14.5,16.5
			l0.3-0.1l-0.9-22L386.8,547.2z"/>
		<path d="M330.3,589.4l-15.5,1c-10.8,0.7-16-5.4-16.5-13.5c-0.5-8.1,3.9-14.9,14.5-15.6l10-0.7l-1.1-16.7l5.6-0.4L330.3,589.4z
			 M313.3,566.3c-7.4,0.5-9.9,4.8-9.6,10.3c0.4,5.5,3.5,9.4,10.9,8.9l9.8-0.6l-1.3-19.2L313.3,566.3z"/>
		<path d="M287.4,545.7l-22.2,43.6l-5.7-0.7L248.3,541l5.8,0.7l3,13.5l18.4,2.2l6.1-12.4L287.4,545.7z M258.2,560.2l4.8,21.4l0.4,0
			l9.8-19.7L258.2,560.2z"/>
		<path d="M199,525.4l5.1,1.8l11.8,42.3l0.4,0.1l11.9-34.1l5.3,1.8l-15.1,43.4l-5.1-1.8l-11.8-42.4l-0.4-0.1L189,570.5l-5.2-1.8
			L199,525.4z"/>
		<path d="M159.9,557.3l-29.4-18l2.6-4.2l12.3,7.5l21.4-35l4.7,2.9l-21.4,35l12.3,7.5L159.9,557.3z"/>
		<path d="M110.1,523.5l-20.4-18.8l3.3-3.6l16.3,15l10.5-11.4l-15.3-14l3.3-3.6l15.3,14l10.6-11.5l-16.6-15.2l3.3-3.6l20.7,19
			L110.1,523.5z"/>
		<path d="M71.5,484.4l-9.2-12.5c-6.4-8.7-4.4-16.1,2.1-20.9c4.9-3.6,10.4-4.2,15.5-0.7l9.2-19.6l3.8,5.2l-8.7,18.4
			c0.2,0.3,0.5,0.6,0.7,0.9l5.9,8.1l14.5-10.6l3.3,4.5L71.5,484.4z M80.9,458.4c-4.4-5.9-8.8-6.3-13.2-3c-4.4,3.3-5.7,7.7-1.3,13.7
			l5.8,7.9l14.5-10.7L80.9,458.4z"/>
		<path d="M82.9,420.6l-48.8,3.9l-2.4-5.2l34.6-34.6l2.4,5.3l-9.9,9.6l7.8,16.9l13.7-1.3L82.9,420.6z M55.2,403.4l-15.7,15.4
			l0.2,0.3l21.9-2L55.2,403.4z"/>
		<path d="M10.1,349.2l-1.8-15.4c-1.3-10.7,4.1-16.2,12.2-17.1c6.1-0.7,11.1,1.4,13.8,7l17.6-12.5l0.8,6.4l-16.7,11.7
			c0.1,0.4,0.1,0.8,0.2,1.2l1.2,10l17.8-2.1l0.7,5.5L10.1,349.2z M31.1,331.2c-0.9-7.3-4.5-9.8-10-9.1c-5.5,0.6-8.7,3.9-7.9,11.3
			l1.1,9.7l17.9-2.1L31.1,331.2z"/>
		<path d="M54.1,277.2c-1.1,11.7-11,19.3-25.4,17.9C14.2,293.7,6,284.3,7.1,272.6s11-19.3,25.4-17.9C47,256.1,55.2,265.5,54.1,277.2
			z M12.3,273.1c-0.8,8.3,5,15.4,16.9,16.6c11.9,1.2,18.9-4.7,19.7-13c0.8-8.3-5-15.4-16.9-16.6C20.1,258.9,13.1,264.8,12.3,273.1z"
			/>
		<path d="M24.4,213.2c-1.9,5.8,0,10.6,4.2,12c4.7,1.5,8.1-3.2,10-6.1l2.6-4.1c2.6-4.1,7.8-11.1,16-8.5c7.1,2.3,10.8,9.8,7.6,19.8
			c-3,9.4-9.7,13.7-17.1,11.9l1.7-5.5c5.1,1.2,8.9-2.7,10.5-7.9c1.9-6.1,0.2-11.7-4.5-13.2c-4.4-1.4-7.3,2.2-10,6.4l-3.3,4.9
			c-4.1,6.2-9,9.4-14.9,7.5c-7.3-2.3-10.1-10.5-7.4-18.9c2.7-8.5,9.6-13,16.3-11.1l-1.6,5.1C29.9,204.7,26,207.9,24.4,213.2z"/>
		<path d="M46.9,161.2c-3,5.3-2.1,10.4,1.7,12.6c4.3,2.4,8.5-1.5,11-4.1l3.4-3.5c3.4-3.5,9.8-9.3,17.3-5.2c6.5,3.6,8.7,11.7,3.6,21
			c-4.8,8.6-12.2,11.5-19.1,8.3l2.8-5c4.8,2.1,9.2-0.9,11.9-5.7c3.1-5.6,2.5-11.4-1.9-13.9c-4-2.2-7.6,0.7-11.1,4.3l-4.2,4.2
			c-5.3,5.3-10.7,7.4-16.1,4.4c-6.7-3.7-7.9-12.3-3.6-19.9c4.3-7.8,11.9-10.8,18.1-7.7l-2.6,4.7C53.9,154,49.6,156.4,46.9,161.2z"/>
		<path d="M98.6,155.9l-23.8-42.7l3.7-4.3l45.8,17.2l-3.8,4.4l-12.9-5l-12.1,14.1l6.8,12L98.6,155.9z M102.8,123.6l-20.5-8l-0.2,0.3
			L93,135L102.8,123.6z"/>
		<path d="M147.2,78.8c-2.9-4.6-1.6-10.7,3-13.6c4.6-2.9,10.7-1.6,13.6,3c2.9,4.6,1.6,10.7-3,13.6C156.2,84.7,150.1,83.4,147.2,78.8
			z"/>
	</g>
</g>
</svg>
