<?xml version="1.0" encoding="utf-8"?>
<!-- Generator: Adobe Illustrator 25.4.1, SVG Export Plug-In . SVG Version: 6.00 Build 0)  -->
<svg version="1.1" id="Capa_1" xmlns="http://www.w3.org/2000/svg" xmlns:xlink="http://www.w3.org/1999/xlink" x="0px" y="0px"
	 viewBox="0 0 48 48" style="enable-background:new 0 0 48 48;" xml:space="preserve">
<style type="text/css">
	.st0{fill:none;stroke:#FA0678;}
	.st1{fill:#FA0678;}
</style>
<path class="st0" d="M24.2,47.5c12.8,0,23.2-10.4,23.2-23.2S37.1,1,24.2,1S1,11.4,1,24.2S11.4,47.5,24.2,47.5z"/>
<path class="st1" d="M14.1,33.4c-0.6,0-1.1-0.2-1.5-0.6s-0.6-0.9-0.6-1.5V16.8c0-0.6,0.2-1.1,0.6-1.5c0.4-0.4,0.9-0.6,1.5-0.6h19.8
	c0.6,0,1.1,0.2,1.5,0.6c0.4,0.4,0.6,0.9,0.6,1.5v14.4c0,0.6-0.2,1.1-0.6,1.5s-0.9,0.6-1.5,0.6C33.9,33.4,14.1,33.4,14.1,33.4z
	 M24,24.2l-10.7-7v14.1c0,0.2,0.1,0.4,0.2,0.6c0.2,0.2,0.4,0.2,0.6,0.2h19.8c0.2,0,0.4-0.1,0.6-0.2c0.2-0.2,0.2-0.4,0.2-0.6V17.1
	L24,24.2z M24,22.7L34.3,16H13.7L24,22.7z M13.3,17.1V16v15.3c0,0.2,0.1,0.4,0.2,0.6c0.2,0.2,0.4,0.2,0.6,0.2h-0.8V17.1z"/>
</svg>
