<svg width="50" height="48" viewBox="0 0 50 48" fill="none" xmlns="http://www.w3.org/2000/svg">
<path d="M20.729 37.6981V24.6293H17.3362V19.9799H20.729V15.9587C20.729 12.8172 22.7396 9.927 27.3891 9.927C28.52 9.927 29.5253 9.927 30.6562 10.0527L30.5306 14.4508C30.5306 14.4508 29.1483 14.4508 27.5147 14.4508C25.8811 14.4508 25.5041 15.2048 25.5041 16.4614V19.8542H30.5306V24.6293H25.6298V37.6981H20.729Z" fill="#FA0678"/>
<path d="M24.2473 47.1227C37.0864 47.1227 47.4945 36.7146 47.4945 23.8754C47.4945 11.0363 37.0864 0.628174 24.2473 0.628174C11.4082 0.628174 1 11.0363 1 23.8754C1 36.7146 11.4082 47.1227 24.2473 47.1227Z" stroke="#FA0678"/>
</svg>
