<svg width="48" height="48" viewBox="0 0 48 48" fill="none" xmlns="http://www.w3.org/2000/svg">
<path d="M23.8757 47.1388C36.7148 47.1388 47.123 36.7235 47.123 23.8754C47.123 11.0274 36.7148 0.612061 23.8757 0.612061C11.0366 0.612061 0.628418 11.0274 0.628418 23.8754C0.628418 36.7235 11.0366 47.1388 23.8757 47.1388Z" stroke="#FA0678"/>
<path d="M17.9694 10.8127C13.8226 10.8127 10.5554 14.1186 10.5554 18.0366V29.6683C10.5554 33.7088 13.9483 36.8922 17.9694 36.8922H29.9072C34.054 36.8922 37.3212 33.5864 37.3212 29.6683V18.0366C37.3212 13.9962 33.9283 10.8127 29.9072 10.8127H17.9694ZM17.9694 13.7513H29.9072C32.4204 13.7513 34.431 15.7103 34.431 18.1591V29.7908C34.431 32.2395 32.4204 34.1986 29.9072 34.1986H17.9694C15.4562 34.1986 13.4456 32.2395 13.4456 29.7908V18.1591C13.4456 15.7103 15.4562 13.7513 17.9694 13.7513ZM31.2895 15.2205C30.4098 15.2205 29.7815 15.8327 29.7815 16.6898C29.7815 17.5469 30.4098 18.1591 31.2895 18.1591C32.1691 18.1591 32.7974 17.5469 32.7974 16.6898C32.7974 15.8327 32.1691 15.2205 31.2895 15.2205ZM23.8755 16.6898C19.7287 16.6898 16.4615 19.9957 16.4615 23.9137C16.4615 27.8317 19.8543 31.1376 23.8755 31.1376C27.8966 31.1376 31.2895 27.8317 31.2895 23.9137C31.2895 19.9957 28.0223 16.6898 23.8755 16.6898ZM23.8755 19.5059C26.3887 19.5059 28.3993 21.4649 28.3993 23.9137C28.3993 26.3625 26.3887 28.3215 23.8755 28.3215C21.3623 28.3215 19.3517 26.3625 19.3517 23.9137C19.3517 21.4649 21.3623 19.5059 23.8755 19.5059Z" fill="#FA0678"/>
</svg>
