<svg width="340" height="59" viewBox="0 0 340 59" fill="none" xmlns="http://www.w3.org/2000/svg">
<g clip-path="url(#clip0_113_103)">
<path d="M71.9189 7.27032C71.9189 7.27032 73.4283 7.33433 76.8124 7.27032C76.8124 7.27032 76.6853 19.5387 77.0613 46.1716C84.1473 46.4276 86.4034 46.3636 86.4034 46.3636C86.3451 49.2654 86.3451 50.8442 86.3451 50.8442C78.756 50.6575 72.295 50.5935 72.295 50.5935C72.295 50.5935 72.2367 33.0392 71.9189 7.27032Z" fill="black"/>
<path d="M86.8536 43.6486C86.8536 37.8345 90.7409 33.5139 98.5789 31.839C98.5789 31.839 98.5206 29.5613 98.4571 28.2385C98.33 24.3233 97.705 22.5524 95.6343 22.5524C93.124 22.5524 92.1867 25.2674 92.4991 30.0201C92.4991 30.0201 90.6191 30.0841 87.9817 30.0841C87.4839 23.3258 89.9888 18.7812 95.8197 18.7812C100.713 18.7812 102.969 22.1897 103.16 28.1265C103.536 42.2084 103.282 51.559 103.282 51.559C103.282 51.559 102.222 51.559 99.3944 51.623C99.3944 51.623 99.5851 49.3454 99.6487 46.3796C99.2951 47.7416 98.4959 48.9437 97.3801 49.7916C96.2644 50.6395 94.8974 51.0836 93.5 51.0523C89.6022 51.0363 86.8536 48.1292 86.8536 43.6486ZM98.706 34.7407C93.2511 36.3836 91.5564 39.6694 91.5564 43.0138C91.5564 45.5422 92.4991 47.3077 94.734 47.3077C96.6776 47.3077 98.7483 45.4142 98.7483 39.4133C98.7589 37.3971 98.7589 36.0689 98.6954 34.7407H98.706Z" fill="black"/>
<path d="M116.691 7.39832C117.817 7.27394 118.948 7.20985 120.08 7.2063C129.613 7.2063 133.373 13.3351 133.373 22.9951C133.373 32.9111 128.67 38.0265 121.584 38.5919C121.648 41.627 121.648 45.3501 121.77 50.4068C121.77 50.4068 119.826 50.4068 116.818 50.4655C116.818 50.4655 116.945 34.1113 116.691 7.39832ZM121.521 34.49C125.472 34.0473 128.406 31.2896 128.406 22.9951C128.406 15.7941 126.149 11.3135 121.383 11.5002C121.394 25.1447 121.394 26.1529 121.521 34.49Z" fill="black"/>
<path d="M134.311 43.5846C134.311 38.0905 137.7 33.2258 146.041 32.1537C146.041 32.1537 145.978 30.0681 145.914 28.7399C145.723 24.8887 145.162 23.1231 143.091 23.1231C140.581 23.1231 139.914 25.6461 139.956 29.94C139.956 29.94 138.012 29.6894 135.444 29.6253C135.253 22.8084 137.7 19.3306 143.282 19.3306C148.17 19.3306 150.426 22.7444 150.617 28.6812C150.993 42.7631 150.744 52.2364 150.744 52.2364C150.744 52.2364 149.685 52.3004 146.851 52.3644C146.851 52.3644 147.042 49.8361 147.106 46.7423C146.163 49.8361 143.78 51.479 140.957 51.479C137.509 51.479 134.311 49.1427 134.311 43.5846ZM146.168 34.9167C140.904 35.8609 139.019 39.3387 139.019 43.0618C139.019 46.0916 140.152 47.7345 142.196 47.7345C144.24 47.7345 146.211 45.7129 146.211 39.6534C146.226 37.5838 146.226 36.3836 146.168 34.9167Z" fill="black"/>
<path d="M165.541 27.6677C165.541 24.766 165.011 23.1231 163.285 23.1231C160.902 23.1231 159.207 26.6596 159.143 30.7028C159.143 35.6902 159.08 50.0281 159.08 50.0281C159.08 50.0281 156.76 49.9641 154.377 50.0281C154.377 50.0281 154.631 37.7118 154.504 19.7733C154.504 19.7733 156.199 19.7733 158.391 19.7093C158.391 19.7093 158.328 21.987 158.391 24.1953C159.583 21.1015 161.903 18.7652 164.974 18.7652C168.549 18.7652 170.053 21.4802 170.18 26.4036C170.244 29.8174 170.365 51.8577 170.365 51.8577C168.3 51.8577 165.599 51.9217 165.599 51.9217C165.599 51.9217 165.541 37.6478 165.541 27.6677Z" fill="black"/>
<path d="M172.309 19.5226C173.368 19.5867 174.38 19.5867 175.322 19.5867C175.386 14.914 175.508 12.071 175.508 12.071C178.458 12.1936 180.089 12.135 180.089 12.135C180.089 12.135 179.962 15.1007 179.898 19.6507C183.976 19.7093 185.416 19.7093 185.416 19.7093C185.353 22.9098 185.353 23.9446 185.353 23.9446L179.898 23.8806C179.835 28.9959 179.898 35.3754 180.025 42.0697C180.147 44.8487 181.153 46.1716 183.282 46.1716C184.05 46.1512 184.811 46.0237 185.544 45.7929L186.041 50.1508C184.666 50.5704 183.241 50.8036 181.805 50.8442C177.854 50.8442 175.534 48.5079 175.412 43.1418C175.285 35.7542 175.285 29.1239 175.349 23.8166H172.277C172.309 20.7868 172.309 19.5226 172.309 19.5226Z" fill="black"/>
<path d="M187.546 34.618C187.546 25.3314 189.992 18.5732 196.199 18.5732C203.036 18.5732 204.673 26.0409 204.228 36.3196C204.228 36.3196 199.461 36.4476 192.439 36.6983C192.566 44.086 193.694 47.8998 196.39 47.8998C198.709 47.8998 199.71 44.8061 199.837 39.4347C199.837 39.4347 202.035 39.4347 204.54 39.5627C204.228 46.8917 201.469 51.5643 196.326 51.5643C189.367 51.543 187.546 44.7847 187.546 34.618ZM192.439 33.4179C194.255 33.3539 196.575 33.2899 199.398 33.0978C199.461 26.3396 198.646 22.1097 196.077 22.1097C193.509 22.1097 192.566 27.161 192.439 33.4179Z" fill="black"/>
<path d="M207.802 19.9814C207.802 19.9814 209.058 19.9814 211.817 19.9174C211.817 19.9174 211.626 22.1897 211.626 25.8542C212.754 21.6243 216.138 18.9679 219.464 18.6532C219.464 18.6532 219.401 20.1041 219.401 23.5819C215.45 24.3393 212.754 27.369 212.627 34.378C212.5 41.3869 212.754 50.7375 212.754 50.7375C212.754 50.7375 211.25 50.7376 207.924 50.8016C207.924 50.7856 207.924 34.554 207.802 19.9814Z" fill="black"/>
<path d="M220.089 43.5846C220.089 38.0905 223.478 33.2258 231.814 32.1537C231.814 32.1537 231.756 30.0681 231.693 28.7399C231.502 24.8887 230.94 23.1231 228.87 23.1231C226.359 23.1231 225.692 25.6461 225.735 29.94C225.735 29.94 223.791 29.6894 221.222 29.6253C221.032 22.8084 223.479 19.3306 229.06 19.3306C233.949 19.3306 236.205 22.7444 236.395 28.6812C236.771 42.7631 236.517 52.2364 236.517 52.2364C236.517 52.2364 235.458 52.3004 232.63 52.3644C232.63 52.3644 232.821 49.8361 232.884 46.7423C231.941 49.8361 229.558 51.479 226.736 51.479C223.288 51.479 220.089 49.1427 220.089 43.5846ZM231.963 34.9167C226.698 35.8609 224.813 39.3387 224.813 43.0618C224.813 46.0916 225.946 47.7345 227.991 47.7345C230.035 47.7345 232.005 45.7129 232.005 39.6534C232.005 37.5838 232.005 36.3836 231.963 34.9167Z" fill="black"/>
<path d="M257.711 32.8471C256.838 33.0978 254.767 33.4765 254.767 33.4765C254.767 35.7542 254.83 41.8137 255.016 49.9641C255.016 49.9641 252.897 49.9001 250.128 50.0281C250.128 50.0281 250.249 33.9193 249.937 7.27032C251.713 6.89343 253.519 6.6845 255.334 6.64624C263.542 6.64624 267.117 11.4469 267.117 19.7147C267.117 25.4008 265.11 29.0013 261.789 31.1456L268.25 51.1696L263.357 51.799C263.357 51.799 261.35 44.6567 257.711 32.8471ZM262.229 20.0454C262.229 14.5513 260.222 10.8228 256.144 10.8228C255.612 10.8303 255.081 10.8731 254.555 10.9508C254.619 22.1523 254.746 29.7054 254.746 29.7054C258.781 29.4387 262.229 27.1024 262.229 20.0294V20.0454Z" fill="black"/>
<path d="M268.626 34.8687C268.626 26.0888 270.883 18.5092 277.402 18.5092C283.921 18.5092 286.304 25.6461 286.304 34.7407C286.304 45.8569 283.55 51.543 277.338 51.543C270.623 51.543 268.626 44.9714 268.626 34.8687ZM281.337 34.7407C281.337 27.6037 280.209 22.1096 277.45 22.1096C274.69 22.1096 273.562 27.7958 273.562 34.618C273.562 43.6486 274.441 48.0065 277.45 48.0065C280.458 48.0065 281.353 42.7631 281.353 34.7407H281.337Z" fill="black"/>
<path d="M288.688 39.9201C288.688 39.9201 290.319 40.0481 293.269 40.2348C292.893 45.4781 294.084 47.6278 296.716 47.6278C298.411 47.6278 299.851 46.561 299.851 43.4566C299.851 35.6902 288.375 37.7118 288.375 26.4676C288.375 22.3017 290.885 18.4665 296.15 18.4665C302.108 18.4665 304.094 23.2672 303.564 30.6548C303.564 30.6548 301.747 30.5908 299.237 30.4628C299.613 25.4115 298.988 22.2537 296.229 22.2537C294.036 22.2537 292.908 24.1473 292.908 26.4836C292.908 34.9487 304.379 32.9911 304.379 43.4085C304.379 49.2227 300.868 51.4096 296.669 51.4096C291.007 51.415 288.126 47.6278 288.688 39.9201Z" fill="black"/>
<path d="M306.307 40.6135H310.872C310.555 45.2275 311.688 47.2491 314.32 47.2491C316.015 47.2491 317.455 46.2356 317.455 43.2059C317.455 41.0722 316.825 39.4134 312.159 36.9544C307.711 34.618 305.952 31.583 305.952 27.289C305.952 22.6804 308.902 19.288 313.727 19.288C319.552 19.288 321.501 23.9659 321.189 30.9749C321.189 30.9749 319.372 30.9749 316.862 31.0389C317.116 25.7048 316.486 23.0805 313.79 23.0805C311.598 23.0805 310.47 24.9741 310.47 27.3104C310.47 30.1534 311.72 31.983 315.358 33.9406C320.982 36.9543 321.994 39.4774 321.994 43.0778C321.994 48.5719 318.546 51.0789 314.283 51.0789C308.945 51.1003 305.809 47.5638 306.307 40.6135Z" fill="black"/>
<path d="M323.487 43.6486C323.487 37.8345 327.38 33.5139 335.218 31.839C335.218 31.839 335.154 29.5613 335.091 28.2385C334.963 24.3233 334.339 22.5524 332.268 22.5524C329.758 22.5524 328.82 25.2674 329.133 30.0201C329.133 30.0201 327.253 30.0841 324.621 30.0841C324.091 23.3258 326.622 18.7812 332.459 18.7812C337.347 18.7812 339.603 22.1897 339.793 28.1265C340.169 42.2084 339.92 51.559 339.92 51.559C339.92 51.559 338.861 51.559 336.028 51.623C336.028 51.623 336.219 49.3454 336.282 46.3796C335.93 47.7412 335.132 48.9431 334.017 49.7911C332.902 50.639 331.536 51.0834 330.139 51.0523C326.23 51.0363 323.487 48.1292 323.487 43.6486ZM335.34 34.7407C329.885 36.3836 328.19 39.6694 328.19 43.0138C328.19 45.5422 329.133 47.3077 331.368 47.3077C333.311 47.3077 335.382 45.4142 335.382 39.4133C335.403 37.3971 335.403 36.0689 335.34 34.7407Z" fill="black"/>
<path d="M29.2866 58.9947C45.4612 58.9947 58.5732 45.7883 58.5732 29.4973C58.5732 13.2064 45.4612 0 29.2866 0C13.1121 0 0 13.2064 0 29.4973C0 45.7883 13.1121 58.9947 29.2866 58.9947Z" fill="#E2007A"/>
<path d="M10.5919 32.1697C18.8695 35.7275 18.1069 35.2955 18.7159 35.7969C19.8757 36.7463 17.9374 47.5638 18.2181 47.3344C18.2181 47.3344 32.4271 48.4332 33.4704 34.6874C34 27.9345 28.2963 22.419 21.9147 22.419C19.1939 22.4569 16.5721 23.4526 14.5039 25.2336C12.4358 27.0146 11.0518 29.4685 10.5919 32.1697Z" fill="white"/>
<path fill-rule="evenodd" clip-rule="evenodd" d="M27.0465 12.6951C29.096 9.95336 32.3742 8.96122 34.3655 10.4601C36.3568 11.959 36.3038 15.4207 34.249 18.1678C32.1941 20.9148 28.9159 21.9016 26.9247 20.4028C24.9334 18.9039 24.9916 15.4421 27.0465 12.6951Z" fill="white"/>
<path fill-rule="evenodd" clip-rule="evenodd" d="M37.0716 20.4401C39.9685 18.2371 43.5062 18.0451 44.9732 20.0027C46.4401 21.9603 45.2697 25.3368 42.3675 27.5291C39.4654 29.7214 35.9383 29.924 34.4713 27.9664C33.0043 26.0088 34.18 22.6484 37.0716 20.4401Z" fill="white"/>
<path fill-rule="evenodd" clip-rule="evenodd" d="M39.1901 33.7166C42.3676 32.2924 45.757 33.0285 46.7845 35.3542C47.8119 37.6798 46.0748 40.7202 42.8972 42.1391C39.7197 43.5579 36.3249 42.8272 35.2975 40.5015C34.2701 38.1759 36.0125 35.1355 39.1901 33.7166Z" fill="white"/>
</g>
<defs>
<clipPath id="clip0_113_103">
<rect width="340" height="59" fill="white"/>
</clipPath>
</defs>
</svg>
