<?xml version="1.0" encoding="utf-8"?>
<!-- Generator: Adobe Illustrator 25.4.1, SVG Export Plug-In . SVG Version: 6.00 Build 0)  -->
<svg version="1.1" id="Capa_1" xmlns="http://www.w3.org/2000/svg" xmlns:xlink="http://www.w3.org/1999/xlink" x="0px" y="0px"
	 viewBox="0 0 56.5 59" style="enable-background:new 0 0 56.5 59;" xml:space="preserve">
<style type="text/css">
	.st0{fill:#E2007A;}
	.st1{fill:#FFFFFF;}
	.st2{fill-rule:evenodd;clip-rule:evenodd;fill:#FFFFFF;}
</style>
<g>
	<g>
		<path class="st0" d="M28.3,57.6c15.4,0,27.9-12.6,27.9-28.1S43.7,1.4,28.3,1.4S0.4,14,0.4,29.5S12.9,57.6,28.3,57.6z"/>
		<path class="st1" d="M10.5,32.1c7.9,3.4,7.1,3,7.7,3.4c1.1,0.9-0.8,11.2-0.5,10.9c0,0,13.5,1,14.6-12c0.5-6.5-4.9-11.7-11-11.7
			c-2.6,0-5,1-7,2.7C12.2,27.1,10.9,29.5,10.5,32.1z"/>
		<path class="st2" d="M26.2,13.5c1.9-2.6,5-3.5,6.9-2.1c1.9,1.4,1.8,4.8-0.1,7.3c-2,2.6-5,3.5-6.9,2.1
			C24.1,19.4,24.2,16.1,26.2,13.5z"/>
		<path class="st2" d="M35.7,20.8c2.8-2.1,6.1-2.3,7.5-0.4c1.4,1.9,0.3,5-2.5,7.1c-2.8,2.1-6.1,2.3-7.5,0.4
			C31.8,26.1,32.9,23,35.7,20.8z"/>
		<path class="st2" d="M37.7,33.5c3-1.3,6.3-0.7,7.2,1.5s-0.7,5.1-3.7,6.5S34.9,42.2,34,40C33,37.8,34.7,34.8,37.7,33.5z"/>
	</g>
</g>
</svg>
