<svg width="48" height="48" viewBox="0 0 48 48" fill="none" xmlns="http://www.w3.org/2000/svg">
<path d="M24.2473 47.4945C37.0864 47.4945 47.4945 37.0864 47.4945 24.2473C47.4945 11.4082 37.0864 1 24.2473 1C11.4082 1 1 11.4082 1 24.2473C1 37.0864 11.4082 47.4945 24.2473 47.4945Z" stroke="#FA0678"/>
<path d="M36.5255 11.6731C36.1995 11.6867 35.8792 11.7636 35.5825 11.8994C35.0444 12.1052 29.3877 14.2934 23.7298 16.4791C20.8985 17.5684 18.0707 18.6576 15.8939 19.5048C13.717 20.352 12.1365 20.9463 11.9777 21.0019C11.459 21.1835 10.7111 21.474 10.2105 22.0622C9.95964 22.355 9.77177 22.8839 9.99116 23.3366C10.2105 23.7892 10.6348 24.0385 11.2335 24.2673L11.2517 24.2733H11.2711C13.4528 24.945 16.7447 25.9762 17.1884 26.1142C17.3035 26.4942 18.6925 31.0606 19.4488 33.532C19.5523 33.7858 19.7356 33.9993 19.9709 34.1403C20.2063 34.2813 20.4812 34.3422 20.7542 34.3138C20.9131 34.3195 21.0721 34.304 21.2269 34.2678C21.6085 34.1706 21.9581 33.9758 22.2414 33.7026C22.7444 33.2306 24.5346 31.4793 25.0691 30.9565L30.9198 35.2699L30.9416 35.2833C31.314 35.5101 31.7345 35.6465 32.1694 35.6814C32.5762 35.7157 32.982 35.606 33.316 35.3716C33.6857 35.1017 33.9523 34.6563 34.0856 34.0754C34.5414 32.0905 37.6527 17.3142 38.186 14.8513C38.5181 13.5987 38.3606 12.6268 37.7376 12.0834C37.4393 11.8268 37.0609 11.6817 36.6673 11.6731C36.6201 11.6731 36.5716 11.6731 36.5243 11.6731H36.5255ZM36.591 12.8834C36.7169 12.879 36.8406 12.9178 36.9413 12.9935C37.0928 13.1254 37.2903 13.5248 37.0103 14.5596C35.5038 21.2464 34.1899 28.0797 32.9063 33.8031C32.8178 34.1867 32.693 34.3259 32.6021 34.3925C32.5002 34.4626 32.3753 34.4912 32.253 34.4724C32.0199 34.4408 31.7945 34.3674 31.5876 34.2557L22.1081 27.2688C23.0402 26.3901 29.2798 20.5021 32.6954 17.3893C33.0675 17.0322 32.7669 16.3884 32.2676 16.3956C31.6264 16.5251 31.0991 16.9826 30.5186 17.2682C26.3018 19.7324 18.3277 24.559 17.6211 24.9826C17.2574 24.8676 13.877 23.811 11.6589 23.1272C11.467 23.0653 11.2883 22.9685 11.1317 22.8416C11.2978 22.6479 11.9801 22.2788 12.3777 22.1384C12.6807 22.0319 14.1509 21.4679 16.329 20.6292C18.5071 19.7905 21.3336 18.7012 24.165 17.6035C28.13 16.0705 32.095 14.5374 36.0601 13.0044C36.2254 12.9252 36.4064 12.8838 36.5898 12.8834H36.591ZM21.7118 28.4815L24.0825 30.2291C23.4244 30.873 21.8608 32.4004 21.4245 32.8094L21.7118 28.4815Z" fill="#FA0678"/>
</svg>
