<svg width="49" height="48" viewBox="0 0 49 48" fill="none" xmlns="http://www.w3.org/2000/svg">
<path d="M24.5526 47.1388C37.3917 47.1388 47.7998 36.7235 47.7998 23.8754C47.7998 11.0274 37.3917 0.612061 24.5526 0.612061C11.7135 0.612061 1.3053 11.0274 1.3053 23.8754C1.3053 36.7235 11.7135 47.1388 24.5526 47.1388Z" stroke="#FA0678"/>
<path d="M39.1133 15.215C38.3502 16.3243 37.3897 17.2916 36.2771 18.0715C36.288 18.2829 36.2934 18.5216 36.2934 18.7877C36.2831 21.8789 35.3477 24.9 33.6018 27.4809C32.7009 28.8268 31.6066 30.0399 30.3522 31.0831C29.0086 32.1774 27.4724 33.0253 25.8183 33.5857C23.9971 34.217 22.0765 34.5328 20.1435 34.5187C17.0556 34.5382 14.0294 33.6758 11.439 32.0381C11.8887 32.0877 12.341 32.113 12.7936 32.114C15.354 32.1381 17.8446 31.3013 19.8457 29.7448C18.6531 29.7349 17.4961 29.3482 16.5483 28.6429C15.6001 27.9596 14.8985 27.0011 14.544 25.9051C15.3946 26.0652 16.2715 26.0333 17.1075 25.8121C15.8241 25.5714 14.6697 24.8956 13.8491 23.9045C12.9986 22.9221 12.5392 21.6744 12.5548 20.3892V20.3207C13.3426 20.7497 14.225 20.9871 15.1271 21.0125C14.3554 20.513 13.7218 19.8359 13.2824 19.0412C12.8298 18.2369 12.5949 17.3334 12.6001 16.4161C12.5941 15.4376 12.8594 14.4757 13.3679 13.6318C14.7837 15.3278 16.5464 16.718 18.5438 17.714C20.5673 18.7322 22.7931 19.3116 25.0681 19.4122C24.9679 18.9998 24.9177 18.5773 24.9186 18.1535C24.907 17.4255 25.0486 16.7029 25.3348 16.0303C25.6209 15.3577 26.0455 14.7493 26.5824 14.2428C27.1203 13.7182 27.7609 13.3043 28.4661 13.0257C29.1714 12.7471 29.927 12.6094 30.6879 12.6208C31.4489 12.6322 32.1997 12.7925 32.8959 13.0922C33.592 13.3919 34.2192 13.8248 34.7403 14.3653C36.0119 14.1209 37.231 13.6653 38.3442 13.0184C37.9392 14.3086 37.0487 15.402 35.8511 16.0794C36.9767 15.9516 38.0763 15.6602 39.1133 15.215Z" fill="#FA0678"/>
</svg>
