<svg width="48" height="48" viewBox="0 0 48 48" fill="none" xmlns="http://www.w3.org/2000/svg">
<path d="M24.2473 47.4945C37.0864 47.4945 47.4945 37.0864 47.4945 24.2473C47.4945 11.4082 37.0864 1 24.2473 1C11.4082 1 1 11.4082 1 24.2473C1 37.0864 11.4082 47.4945 24.2473 47.4945Z" stroke="#FA0678"/>
<path d="M24.1251 14.3413C24.1251 14.3413 16.344 14.3413 14.4018 14.8642C13.8727 15.0042 13.3901 15.2819 13.003 15.669C12.616 16.056 12.3383 16.5386 12.1982 17.0678C11.8257 19.4604 11.6508 21.8797 11.6754 24.3011C11.6508 26.7224 11.8257 29.1417 12.1982 31.5343C12.3383 32.0635 12.616 32.5461 13.003 32.9332C13.3901 33.3202 13.8727 33.5979 14.4018 33.7379C16.344 34.2608 24.1251 34.2608 24.1251 34.2608C24.1251 34.2608 31.9061 34.2608 33.8483 33.7379C34.3763 33.5956 34.8577 33.3171 35.2444 32.9304C35.6311 32.5437 35.9095 32.0623 36.0519 31.5343C36.4244 29.1417 36.5993 26.7224 36.5748 24.3011C36.5993 21.8797 36.4244 19.4604 36.0519 17.0678C35.9095 16.5398 35.6311 16.0584 35.2444 15.6717C34.8577 15.285 34.3763 15.0066 33.8483 14.8642C31.9061 14.3413 24.1251 14.3413 24.1251 14.3413ZM24.1251 16.8312C27.1609 16.7688 30.1974 16.9144 33.2133 17.267C33.3175 17.2956 33.4125 17.3508 33.4889 17.4272C33.5653 17.5036 33.6205 17.5985 33.6491 17.7027C33.9759 19.8864 34.1216 22.0934 34.0848 24.3011C34.1216 26.5088 33.9759 28.7157 33.6491 30.8994C33.6205 31.0036 33.5653 31.0986 33.4889 31.175C33.4125 31.2514 33.3175 31.3066 33.2133 31.3351C30.1974 31.6877 27.1609 31.8333 24.1251 31.7709C21.0892 31.8333 18.0527 31.6877 15.0368 31.3351C14.9326 31.3066 14.8376 31.2514 14.7612 31.175C14.6848 31.0986 14.6296 31.0036 14.601 30.8994C14.2742 28.7157 14.1285 26.5088 14.1653 24.3011C14.1285 22.0934 14.2742 19.8864 14.601 17.7027C14.6272 17.5974 14.6816 17.5011 14.7584 17.4244C14.8352 17.3476 14.9314 17.2932 15.0368 17.267C18.0527 16.9144 21.0892 16.7688 24.1251 16.8312ZM21.6351 19.9935V28.6087L29.1049 24.3011L21.6351 19.9935Z" fill="#FA0678"/>
</svg>
